<svg xmlns="http://www.w3.org/2000/svg" version="1.1" xmlns:xlink="http://www.w3.org/1999/xlink" xmlns:svgjs="http://svgjs.com/svgjs" width="1920" height="500" preserveAspectRatio="none" viewBox="0 0 1920 500"><g mask="url(&quot;#SvgjsMask1598&quot;)" fill="none"><rect width="1920" height="500" x="0" y="0" fill="rgba(250, 252, 255, 1)"></rect><use xlink:href="#SvgjsG1602" transform="translate(0, 0)" fill="rgba(192, 194, 197, 1)"></use><use xlink:href="#SvgjsG1602" transform="translate(0, 400)" fill="rgba(192, 194, 197, 1)"></use><use xlink:href="#SvgjsG1602" transform="translate(400, 0)" fill="rgba(192, 194, 197, 1)"></use><use xlink:href="#SvgjsG1602" transform="translate(400, 400)" fill="rgba(192, 194, 197, 1)"></use><use xlink:href="#SvgjsG1602" transform="translate(800, 0)" fill="rgba(192, 194, 197, 1)"></use><use xlink:href="#SvgjsG1602" transform="translate(800, 400)" fill="rgba(192, 194, 197, 1)"></use><use xlink:href="#SvgjsG1602" transform="translate(1200, 0)" fill="rgba(192, 194, 197, 1)"></use><use xlink:href="#SvgjsG1602" transform="translate(1200, 400)" fill="rgba(192, 194, 197, 1)"></use><use xlink:href="#SvgjsG1602" transform="translate(1600, 0)" fill="rgba(192, 194, 197, 1)"></use><use xlink:href="#SvgjsG1602" transform="translate(1600, 400)" fill="rgba(192, 194, 197, 1)"></use></g><defs><mask id="SvgjsMask1598"><rect width="1920" height="500" fill="#ffffff"></rect></mask><g id="SvgjsG1601"><path d="M7.713 15.485C3.459 15.485 0 12.025 0 7.768 0 3.513 3.459 0.051 7.713 0.051S15.432 3.513 15.432 7.768c0 4.257-3.465 7.716-7.719 7.717z m0-1.91c3.201 0 5.81-2.604 5.81-5.809 0-3.199-2.61-5.807-5.81-5.807-3.202 0-5.804 2.609-5.804 5.807-0.001 3.206 2.602 5.809 5.804 5.809z"></path><path d="M7.753 8.787a0.574 0.574 0 0 1-0.554-0.042 0.578 0.578 0 0 1-0.259-0.399L6.931 3.862a0.58 0.58 0 0 1 1.162 0v3.478l2.975-1.4a0.578 0.578 0 0 1 0.773 0.275c0.138 0.292 0.011 0.637-0.276 0.774l-3.81 1.798z"></path></g><g id="SvgjsG1599"><path d="M10.596 3.917a0.64 0.64 0 0 0-0.639 0.641c0 0.354 0.287 0.64 0.639 0.64a0.639 0.639 0 0 0 0.639-0.64 0.639 0.639 0 0 0-0.639-0.641z m-0.151 5.25a0.642 0.642 0 0 0 0.643 0.641c0.352 0 0.638-0.286 0.637-0.64a0.639 0.639 0 0 0-0.637-0.641 0.641 0.641 0 0 0-0.642 0.641z m-4.678-5.945a0.641 0.641 0 0 0 0 1.282 0.64 0.64 0 0 0 0.642-0.64 0.641 0.641 0 0 0-0.642-0.642z"></path><path d="M8.659 0C5.904 0 3.363 2.068 2.835 4.347c-0.119 0.507-0.25 1.83-0.25 1.829L1.316 9.37A0.488 0.488 0 0 0 1.28 9.561a0.491 0.491 0 0 0 0.491 0.489h0.814v1.697c0 1.323 1.072 2.395 2.394 2.395h0.951V16H12.408V10.847c1.413-1.111 2.32-2.838 2.32-4.775C14.728 2.718 12.01 0 8.659 0z m-4.583 7.387c-0.372 0-0.675-0.304-0.675-0.679a0.677 0.677 0 0 1 0.675-0.677c0.375 0 0.68 0.303 0.68 0.677a0.68 0.68 0 0 1-0.68 0.679z m8.959-0.918l-0.631 0.632-0.77-0.543c-0.148 0.077-0.304 0.139-0.467 0.18l-0.142 0.838h0.294l0.079 0.448c0.031 0.008 0.062 0.013 0.092 0.024 0.079 0.029 0.152 0.067 0.22 0.11l0.355-0.25 0.292 0.291-0.262 0.371c0.056 0.1 0.101 0.206 0.125 0.318l0.429 0.074v0.412l-0.446 0.076c-0.009 0.032-0.013 0.063-0.024 0.094a1.147 1.147 0 0 1-0.112 0.223l0.251 0.353-0.292 0.291-0.369-0.262a1.149 1.149 0 0 1-0.318 0.126l-0.075 0.429H10.851l-0.074-0.448c-0.032-0.009-0.064-0.013-0.096-0.025a1.174 1.174 0 0 1-0.221-0.11l-0.356 0.252L9.815 10.08l0.262-0.37a1.151 1.151 0 0 1-0.125-0.319l-0.431-0.074v-0.411l0.45-0.077c0.008-0.032 0.013-0.063 0.025-0.094 0.029-0.079 0.066-0.152 0.109-0.22l-0.251-0.356 0.291-0.291 0.371 0.262a1.174 1.174 0 0 1 0.317-0.125l0.064-0.372h-0.776L9.96 6.704c-0.035-0.011-0.07-0.02-0.104-0.034a2.221 2.221 0 0 1-0.352-0.168l-0.744 0.524-0.63-0.632 0.542-0.767a2.184 2.184 0 0 1-0.181-0.469l-0.894-0.154V4.27l-0.449 0.078c-0.007 0.022-0.009 0.044-0.017 0.065a1.402 1.402 0 0 1-0.109 0.223l0.345 0.489-0.416 0.414-0.506-0.357a1.438 1.438 0 0 1-0.294 0.116l-0.102 0.586-0.584 0-0.106-0.611c-0.02-0.007-0.042-0.009-0.062-0.017a1.43 1.43 0 0 1-0.226-0.11l-0.49 0.345-0.414-0.415 0.359-0.508a1.485 1.485 0 0 1-0.112-0.291L3.824 4.176V3.589l0.608-0.105c0.007-0.022 0.012-0.043 0.02-0.063 0.029-0.08 0.068-0.154 0.109-0.225l-0.345-0.488 0.413-0.415 0.508 0.358a1.439 1.439 0 0 1 0.295-0.117l0.102-0.586h0.584L6.224 2.56c0.021 0.007 0.043 0.008 0.063 0.016 0.08 0.03 0.154 0.069 0.225 0.11l0.489-0.344 0.415 0.414-0.359 0.507a1.397 1.397 0 0 1 0.115 0.293l0.586 0.101v0.427l0.768-0.132c0.011-0.035 0.02-0.07 0.033-0.105 0.046-0.126 0.104-0.243 0.17-0.355l-0.528-0.74 0.634-0.633 0.77 0.544a2.192 2.192 0 0 1 0.468-0.181l0.151-0.894h0.894l0.162 0.928c0.035 0.01 0.069 0.02 0.104 0.033 0.124 0.046 0.241 0.104 0.352 0.168l0.743-0.523 0.629 0.631-0.542 0.77c0.077 0.148 0.138 0.304 0.18 0.466l0.895 0.154v0.894l-0.929 0.16c-0.011 0.035-0.02 0.07-0.032 0.104-0.046 0.125-0.104 0.242-0.17 0.353l0.525 0.743z"></path></g><g id="SvgjsG1600"><path d="M7.45 12.652S6.4 11.121 3.725 11.121C1.274 11.121 0 11.833 0 11.833V1.937s1.274-0.712 3.725-0.729C6.4 1.19 7.45 2.756 7.45 2.756V12.652z m1.087 0s1.05-1.531 3.725-1.531c2.451 0 3.725 0.712 3.725 0.713V1.937s-1.274-0.712-3.725-0.729c-2.675-0.017-3.725 1.548-3.725 1.548v9.896z"></path><path d="M8.012 15.733S6.4 13.411 3.725 13.411c-2.451 0-3.725 0.712-3.725 0.712v-1.186s1.274-0.712 3.725-0.729c2.675-0.018 4.287 2.34 4.287 2.34V15.733z m0 0s1.612-2.323 4.287-2.323c2.451 0 3.725 0.712 3.725 0.712v-1.185s-1.274-0.712-3.725-0.729c-2.675-0.019-4.287 2.339-4.287 2.339v1.185z"></path></g><g id="SvgjsG1602"><use xlink:href="#SvgjsG1599" transform="translate(0, 0)" fill="rgba(192, 194, 197, 1)"></use><use xlink:href="#SvgjsG1600" transform="translate(0, 40)" fill="rgba(192, 194, 197, 1)"></use><use xlink:href="#SvgjsG1601" transform="translate(0, 80)" fill="rgba(192, 194, 197, 1)"></use><use xlink:href="#SvgjsG1600" transform="translate(0, 120)" fill="rgba(192, 194, 197, 1)"></use><use xlink:href="#SvgjsG1599" transform="translate(0, 160)" fill="rgba(192, 194, 197, 1)"></use><use xlink:href="#SvgjsG1600" transform="translate(0, 200)" fill="rgba(192, 194, 197, 1)"></use><use xlink:href="#SvgjsG1600" transform="translate(0, 240)" fill="rgba(192, 194, 197, 1)"></use><use xlink:href="#SvgjsG1599" transform="translate(0, 280)" fill="rgba(192, 194, 197, 1)"></use><use xlink:href="#SvgjsG1600" transform="translate(0, 320)" fill="rgba(192, 194, 197, 1)"></use><use xlink:href="#SvgjsG1599" transform="translate(0, 360)" fill="rgba(192, 194, 197, 1)"></use><use xlink:href="#SvgjsG1601" transform="translate(40, 0)" fill="rgba(192, 194, 197, 1)"></use><use xlink:href="#SvgjsG1601" transform="translate(40, 40)" fill="rgba(192, 194, 197, 1)"></use><use xlink:href="#SvgjsG1599" transform="translate(40, 80)" fill="rgba(192, 194, 197, 1)"></use><use xlink:href="#SvgjsG1601" transform="translate(40, 120)" fill="rgba(192, 194, 197, 1)"></use><use xlink:href="#SvgjsG1601" transform="translate(40, 160)" fill="rgba(192, 194, 197, 1)"></use><use xlink:href="#SvgjsG1600" transform="translate(40, 200)" fill="rgba(192, 194, 197, 1)"></use><use xlink:href="#SvgjsG1601" transform="translate(40, 240)" fill="rgba(192, 194, 197, 1)"></use><use xlink:href="#SvgjsG1599" transform="translate(40, 280)" fill="rgba(192, 194, 197, 1)"></use><use xlink:href="#SvgjsG1599" transform="translate(40, 320)" fill="rgba(192, 194, 197, 1)"></use><use xlink:href="#SvgjsG1600" transform="translate(40, 360)" fill="rgba(192, 194, 197, 1)"></use><use xlink:href="#SvgjsG1599" transform="translate(80, 0)" fill="rgba(192, 194, 197, 1)"></use><use xlink:href="#SvgjsG1600" transform="translate(80, 40)" fill="rgba(192, 194, 197, 1)"></use><use xlink:href="#SvgjsG1601" transform="translate(80, 80)" fill="rgba(192, 194, 197, 1)"></use><use xlink:href="#SvgjsG1600" transform="translate(80, 120)" fill="rgba(192, 194, 197, 1)"></use><use xlink:href="#SvgjsG1600" transform="translate(80, 160)" fill="rgba(192, 194, 197, 1)"></use><use xlink:href="#SvgjsG1601" transform="translate(80, 200)" fill="rgba(192, 194, 197, 1)"></use><use xlink:href="#SvgjsG1599" transform="translate(80, 240)" fill="rgba(192, 194, 197, 1)"></use><use xlink:href="#SvgjsG1600" transform="translate(80, 280)" fill="rgba(192, 194, 197, 1)"></use><use xlink:href="#SvgjsG1600" transform="translate(80, 320)" fill="rgba(192, 194, 197, 1)"></use><use xlink:href="#SvgjsG1600" transform="translate(80, 360)" fill="rgba(192, 194, 197, 1)"></use><use xlink:href="#SvgjsG1599" transform="translate(120, 0)" fill="rgba(192, 194, 197, 1)"></use><use xlink:href="#SvgjsG1599" transform="translate(120, 40)" fill="rgba(192, 194, 197, 1)"></use><use xlink:href="#SvgjsG1599" transform="translate(120, 80)" fill="rgba(192, 194, 197, 1)"></use><use xlink:href="#SvgjsG1599" transform="translate(120, 120)" fill="rgba(192, 194, 197, 1)"></use><use xlink:href="#SvgjsG1599" transform="translate(120, 160)" fill="rgba(192, 194, 197, 1)"></use><use xlink:href="#SvgjsG1599" transform="translate(120, 200)" fill="rgba(192, 194, 197, 1)"></use><use xlink:href="#SvgjsG1599" transform="translate(120, 240)" fill="rgba(192, 194, 197, 1)"></use><use xlink:href="#SvgjsG1600" transform="translate(120, 280)" fill="rgba(192, 194, 197, 1)"></use><use xlink:href="#SvgjsG1601" transform="translate(120, 320)" fill="rgba(192, 194, 197, 1)"></use><use xlink:href="#SvgjsG1600" transform="translate(120, 360)" fill="rgba(192, 194, 197, 1)"></use><use xlink:href="#SvgjsG1599" transform="translate(160, 0)" fill="rgba(192, 194, 197, 1)"></use><use xlink:href="#SvgjsG1600" transform="translate(160, 40)" fill="rgba(192, 194, 197, 1)"></use><use xlink:href="#SvgjsG1601" transform="translate(160, 80)" fill="rgba(192, 194, 197, 1)"></use><use xlink:href="#SvgjsG1600" transform="translate(160, 120)" fill="rgba(192, 194, 197, 1)"></use><use xlink:href="#SvgjsG1601" transform="translate(160, 160)" fill="rgba(192, 194, 197, 1)"></use><use xlink:href="#SvgjsG1600" transform="translate(160, 200)" fill="rgba(192, 194, 197, 1)"></use><use xlink:href="#SvgjsG1599" transform="translate(160, 240)" fill="rgba(192, 194, 197, 1)"></use><use xlink:href="#SvgjsG1599" transform="translate(160, 280)" fill="rgba(192, 194, 197, 1)"></use><use xlink:href="#SvgjsG1599" transform="translate(160, 320)" fill="rgba(192, 194, 197, 1)"></use><use xlink:href="#SvgjsG1600" transform="translate(160, 360)" fill="rgba(192, 194, 197, 1)"></use><use xlink:href="#SvgjsG1599" transform="translate(200, 0)" fill="rgba(192, 194, 197, 1)"></use><use xlink:href="#SvgjsG1600" transform="translate(200, 40)" fill="rgba(192, 194, 197, 1)"></use><use xlink:href="#SvgjsG1601" transform="translate(200, 80)" fill="rgba(192, 194, 197, 1)"></use><use xlink:href="#SvgjsG1601" transform="translate(200, 120)" fill="rgba(192, 194, 197, 1)"></use><use xlink:href="#SvgjsG1600" transform="translate(200, 160)" fill="rgba(192, 194, 197, 1)"></use><use xlink:href="#SvgjsG1600" transform="translate(200, 200)" fill="rgba(192, 194, 197, 1)"></use><use xlink:href="#SvgjsG1600" transform="translate(200, 240)" fill="rgba(192, 194, 197, 1)"></use><use xlink:href="#SvgjsG1599" transform="translate(200, 280)" fill="rgba(192, 194, 197, 1)"></use><use xlink:href="#SvgjsG1600" transform="translate(200, 320)" fill="rgba(192, 194, 197, 1)"></use><use xlink:href="#SvgjsG1601" transform="translate(200, 360)" fill="rgba(192, 194, 197, 1)"></use><use xlink:href="#SvgjsG1600" transform="translate(240, 0)" fill="rgba(192, 194, 197, 1)"></use><use xlink:href="#SvgjsG1601" transform="translate(240, 40)" fill="rgba(192, 194, 197, 1)"></use><use xlink:href="#SvgjsG1600" transform="translate(240, 80)" fill="rgba(192, 194, 197, 1)"></use><use xlink:href="#SvgjsG1601" transform="translate(240, 120)" fill="rgba(192, 194, 197, 1)"></use><use xlink:href="#SvgjsG1600" transform="translate(240, 160)" fill="rgba(192, 194, 197, 1)"></use><use xlink:href="#SvgjsG1601" transform="translate(240, 200)" fill="rgba(192, 194, 197, 1)"></use><use xlink:href="#SvgjsG1599" transform="translate(240, 240)" fill="rgba(192, 194, 197, 1)"></use><use xlink:href="#SvgjsG1601" transform="translate(240, 280)" fill="rgba(192, 194, 197, 1)"></use><use xlink:href="#SvgjsG1601" transform="translate(240, 320)" fill="rgba(192, 194, 197, 1)"></use><use xlink:href="#SvgjsG1599" transform="translate(240, 360)" fill="rgba(192, 194, 197, 1)"></use><use xlink:href="#SvgjsG1601" transform="translate(280, 0)" fill="rgba(192, 194, 197, 1)"></use><use xlink:href="#SvgjsG1601" transform="translate(280, 40)" fill="rgba(192, 194, 197, 1)"></use><use xlink:href="#SvgjsG1599" transform="translate(280, 80)" fill="rgba(192, 194, 197, 1)"></use><use xlink:href="#SvgjsG1599" transform="translate(280, 120)" fill="rgba(192, 194, 197, 1)"></use><use xlink:href="#SvgjsG1600" transform="translate(280, 160)" fill="rgba(192, 194, 197, 1)"></use><use xlink:href="#SvgjsG1601" transform="translate(280, 200)" fill="rgba(192, 194, 197, 1)"></use><use xlink:href="#SvgjsG1601" transform="translate(280, 240)" fill="rgba(192, 194, 197, 1)"></use><use xlink:href="#SvgjsG1600" transform="translate(280, 280)" fill="rgba(192, 194, 197, 1)"></use><use xlink:href="#SvgjsG1601" transform="translate(280, 320)" fill="rgba(192, 194, 197, 1)"></use><use xlink:href="#SvgjsG1599" transform="translate(280, 360)" fill="rgba(192, 194, 197, 1)"></use><use xlink:href="#SvgjsG1600" transform="translate(320, 0)" fill="rgba(192, 194, 197, 1)"></use><use xlink:href="#SvgjsG1601" transform="translate(320, 40)" fill="rgba(192, 194, 197, 1)"></use><use xlink:href="#SvgjsG1599" transform="translate(320, 80)" fill="rgba(192, 194, 197, 1)"></use><use xlink:href="#SvgjsG1601" transform="translate(320, 120)" fill="rgba(192, 194, 197, 1)"></use><use xlink:href="#SvgjsG1600" transform="translate(320, 160)" fill="rgba(192, 194, 197, 1)"></use><use xlink:href="#SvgjsG1600" transform="translate(320, 200)" fill="rgba(192, 194, 197, 1)"></use><use xlink:href="#SvgjsG1601" transform="translate(320, 240)" fill="rgba(192, 194, 197, 1)"></use><use xlink:href="#SvgjsG1599" transform="translate(320, 280)" fill="rgba(192, 194, 197, 1)"></use><use xlink:href="#SvgjsG1601" transform="translate(320, 320)" fill="rgba(192, 194, 197, 1)"></use><use xlink:href="#SvgjsG1600" transform="translate(320, 360)" fill="rgba(192, 194, 197, 1)"></use><use xlink:href="#SvgjsG1600" transform="translate(360, 0)" fill="rgba(192, 194, 197, 1)"></use><use xlink:href="#SvgjsG1600" transform="translate(360, 40)" fill="rgba(192, 194, 197, 1)"></use><use xlink:href="#SvgjsG1601" transform="translate(360, 80)" fill="rgba(192, 194, 197, 1)"></use><use xlink:href="#SvgjsG1600" transform="translate(360, 120)" fill="rgba(192, 194, 197, 1)"></use><use xlink:href="#SvgjsG1599" transform="translate(360, 160)" fill="rgba(192, 194, 197, 1)"></use><use xlink:href="#SvgjsG1599" transform="translate(360, 200)" fill="rgba(192, 194, 197, 1)"></use><use xlink:href="#SvgjsG1601" transform="translate(360, 240)" fill="rgba(192, 194, 197, 1)"></use><use xlink:href="#SvgjsG1600" transform="translate(360, 280)" fill="rgba(192, 194, 197, 1)"></use><use xlink:href="#SvgjsG1600" transform="translate(360, 320)" fill="rgba(192, 194, 197, 1)"></use><use xlink:href="#SvgjsG1599" transform="translate(360, 360)" fill="rgba(192, 194, 197, 1)"></use></g></defs></svg>