<svg xmlns="http://www.w3.org/2000/svg" version="1.1" xmlns:xlink="http://www.w3.org/1999/xlink" xmlns:svgjs="http://svgjs.com/svgjs" width="1920" height="525" preserveAspectRatio="none" viewBox="0 0 1920 525"><g mask="url(&quot;#SvgjsMask5734&quot;)" fill="none"><rect width="1920" height="525" x="0" y="0" fill="url(#SvgjsLinearGradient5735)"></rect><path d="M30 525L555 0L952.5 0L427.5 525z" fill="url(#SvgjsLinearGradient5736)"></path><path d="M377.8 525L902.8 0L1322.8 0L797.8 525z" fill="url(#SvgjsLinearGradient5736)"></path><path d="M663.6 525L1188.6 0L1644.6 0L1119.6 525z" fill="url(#SvgjsLinearGradient5736)"></path><path d="M957.4000000000001 525L1482.4 0L1915.9 0L1390.9 525z" fill="url(#SvgjsLinearGradient5736)"></path><path d="M1912 525L1387 0L1166.5 0L1691.5 525z" fill="url(#SvgjsLinearGradient5737)"></path><path d="M1566.2 525L1041.2 0L658.7 0L1183.7 525z" fill="url(#SvgjsLinearGradient5737)"></path><path d="M1259.4 525L734.4000000000001 0L480.9000000000001 0L1005.9000000000001 525z" fill="url(#SvgjsLinearGradient5737)"></path><path d="M950.5999999999999 525L425.5999999999999 0L166.0999999999999 0L691.0999999999999 525z" fill="url(#SvgjsLinearGradient5737)"></path><path d="M1600.104347942733 525L1920 205.10434794273306L1920 525z" fill="url(#SvgjsLinearGradient5736)"></path><path d="M0 525L319.89565205726694 525L 0 205.10434794273306z" fill="url(#SvgjsLinearGradient5737)"></path></g><defs><mask id="SvgjsMask5734"><rect width="1920" height="525" fill="#ffffff"></rect></mask><linearGradient x1="50%" y1="0%" x2="50%" y2="100%" gradientUnits="userSpaceOnUse" id="SvgjsLinearGradient5735"><stop stop-color="rgba(35, 60, 87, 1)" offset="0"></stop><stop stop-color="rgba(255, 255, 255, 1)" offset="1"></stop></linearGradient><linearGradient x1="0%" y1="100%" x2="100%" y2="0%" id="SvgjsLinearGradient5736"><stop stop-color="rgba(242, 246, 255, 0.2)" offset="0"></stop><stop stop-opacity="0" stop-color="rgba(242, 246, 255, 0.2)" offset="0.66"></stop></linearGradient><linearGradient x1="100%" y1="100%" x2="0%" y2="0%" id="SvgjsLinearGradient5737"><stop stop-color="rgba(242, 246, 255, 0.2)" offset="0"></stop><stop stop-opacity="0" stop-color="rgba(242, 246, 255, 0.2)" offset="0.66"></stop></linearGradient></defs></svg>