<svg xmlns="http://www.w3.org/2000/svg" version="1.1" xmlns:xlink="http://www.w3.org/1999/xlink" xmlns:svgjs="http://svgjs.com/svgjs" width="1920" height="1130" preserveAspectRatio="none" viewBox="0 0 1920 1130"><g mask="url(&quot;#SvgjsMask1268&quot;)" fill="none"><rect width="1920" height="1130" x="0" y="0" fill="url(#SvgjsLinearGradient1269)"></rect><path d="M1920 0L1083.9099999999999 0L1920 198.76z" fill="rgba(255, 255, 255, .1)"></path><path d="M1083.9099999999999 0L1920 198.76L1920 205.89L715.2399999999998 0z" fill="rgba(255, 255, 255, .075)"></path><path d="M715.24 0L1920 205.89L1920 244.75L376.06 0z" fill="rgba(255, 255, 255, .05)"></path><path d="M376.05999999999995 0L1920 244.75L1920 469.46000000000004L255.91999999999996 0z" fill="rgba(255, 255, 255, .025)"></path><path d="M0 1130L198.32 1130L0 1093.49z" fill="rgba(0, 0, 0, .1)"></path><path d="M0 1093.49L198.32 1130L940.97 1130L0 672.64z" fill="rgba(0, 0, 0, .075)"></path><path d="M0 672.64L940.97 1130L1512.1 1130L0 314.3z" fill="rgba(0, 0, 0, .05)"></path><path d="M0 314.29999999999995L1512.1 1130L1701.07 1130L0 295.84z" fill="rgba(0, 0, 0, .025)"></path></g><defs><mask id="SvgjsMask1268"><rect width="1920" height="1130" fill="#ffffff"></rect></mask><linearGradient x1="50%" y1="100%" x2="50%" y2="0%" gradientUnits="userSpaceOnUse" id="SvgjsLinearGradient1269"><stop stop-color="#0e2a47" offset="0"></stop><stop stop-color="rgba(242, 244, 246, 1)" offset="1"></stop></linearGradient></defs></svg>